<svg height="512" viewBox="0 0 128 128" width="512" xmlns="http://www.w3.org/2000/svg"><path d="m103.527 35.457a1.75 1.75 0 0 0 -2.908-.716l-8.163 8.159-7.36-7.36 8.163-8.163a1.749 1.749 0 0 0 -.716-2.907 16.753 16.753 0 0 0 -20.911 21.27l-28.816 28.816a15.124 15.124 0 0 0 -18.416 19.12 1.75 1.75 0 0 0 2.908.716l7.15-7.15 6.3 6.3-7.15 7.15a1.75 1.75 0 0 0 .716 2.908 15.248 15.248 0 0 0 4.543.7 15.125 15.125 0 0 0 14.577-19.116l28.817-28.816a16.754 16.754 0 0 0 21.266-20.911zm-6.613 14.38a13.229 13.229 0 0 1 -14.431 2.882 1.748 1.748 0 0 0 -1.9.381l-30.361 30.356a1.751 1.751 0 0 0 -.413 1.819 11.7 11.7 0 0 1 -2.731 12.112 11.558 11.558 0 0 1 -8.616 3.4l6.008-6.008a1.748 1.748 0 0 0 0-2.474l-8.77-8.775a1.748 1.748 0 0 0 -2.474 0l-6.008 6.008a11.624 11.624 0 0 1 15.507-11.347 1.753 1.753 0 0 0 1.819-.413l30.356-30.357a1.748 1.748 0 0 0 .381-1.9 13.254 13.254 0 0 1 13.171-18.283l-7.068 7.069a1.749 1.749 0 0 0 0 2.475l9.835 9.834a1.748 1.748 0 0 0 2.474 0l7.069-7.068a13.215 13.215 0 0 1 -3.848 10.289z"/></svg>